<svg xmlns="http://www.w3.org/2000/svg" viewBox="0 0 560 420">
  <defs>
    <linearGradient id="bg" x1="0" x2="1" y1="0" y2="1">
      <stop stop-color="#0ea5e9" offset="0"/>
      <stop stop-color="#22d3ee" offset=".5"/>
      <stop stop-color="#a855f7" offset="1"/>
    </linearGradient>
    <filter id="blur"><feGaussianBlur stdDeviation="20"/></filter>
  </defs>
  <rect width="560" height="420" rx="24" fill="#0b132b"/>
  <g filter="url(#blur)" opacity=".4">
    <circle cx="100" cy="100" r="80" fill="url(#bg)"/>
    <circle cx="460" cy="320" r="100" fill="url(#bg)"/>
  </g>
  <rect x="40" y="60" width="480" height="300" rx="16" fill="#0f172a" stroke="#243048"/>
  <rect x="60" y="90" width="440" height="40" rx="8" fill="#111827"/>
  <rect x="70" y="100" width="80" height="20" rx="6" fill="#22d3ee"/>
  <rect x="160" y="100" width="60" height="20" rx="6" fill="#4b5563"/>
  <rect x="230" y="100" width="120" height="20" rx="6" fill="#4b5563"/>
  <rect x="60" y="150" width="140" height="12" rx="6" fill="#e5e7eb"/>
  <rect x="60" y="170" width="220" height="12" rx="6" fill="#9ca3af"/>
  <rect x="60" y="200" width="200" height="120" rx="10" fill="#0b132b" stroke="#243048"/>
  <rect x="280" y="200" width="220" height="56" rx="10" fill="#0b132b" stroke="#243048"/>
  <rect x="280" y="268" width="220" height="52" rx="10" fill="#0b132b" stroke="#243048"/>
</svg>
